<svg 
    width="24" 
    height="24" 
    viewBox="0 0 24 24" 
    fill="none" 
    xmlns="http://www.w3.org/2000/svg"
>
    <path 
        d="M12 2C10.8954 2 10 2.89543 10 4C10 5.10457 10.8954 6 12 6C13.1046 6 14 5.10457 14 4C14 2.89543 13.1046 2 12 2Z" 
        fill="#FF6F00"
    />
    <path 
        d="M12 7C9.79086 7 8 8.79086 8 11C8 13.2091 9.79086 15 12 15C14.2091 15 16 13.2091 16 11C16 8.79086 14.2091 7 12 7ZM12 9C13.1046 9 14 9.89543 14 11C14 12.1046 13.1046 13 12 13C10.8954 13 10 12.1046 10 11C10 9.89543 10.8954 9 12 9Z" 
        fill="#FF6F00"
    />
    <path 
        d="M12 16C8.13401 16 5 19.134 5 23H19C19 19.134 15.866 16 12 16ZM12 18C14.7614 18 17 20.2386 17 23H7C7 20.2386 9.23858 18 12 18Z" 
        fill="#FF6F00"
    />
    <path 
        d="M12 14C7.58172 14 4 17.5817 4 22H20C20 17.5817 16.4183 14 12 14ZM12 16C14.7614 16 17 18.2386 17 21H7C7 18.2386 9.23858 16 12 16Z" 
        fill="#FF6F00"
    />
</svg>
